# File created by Blade
# Date/Time:  Wed Apr 08 17:04:14 2015
#---------------------------------------------------------
:version 1.10
:name HOM
:units
  mass 1.0
  length 1.000000
  angle deg
:documentation
     Acclaim Skeleton File
:root
   axis xyz
   order TX TY TZ RX RY RZ
   position 0.000000 0.000000 0.000000
   orientation 0 0 0
:bonedata
   begin
      id 1
      name Spine_dum
      direction 0.000000 1.000000 0.000000
      length 5.893853
      axis 0.0 0.0 0.0 xyz
   end
   begin
      id 2
      name LeftUpLeg_dum
      direction 1.000000 0.000000 0.000000
      length 3.697939
      axis 0.0 0.0 0.0 xyz
   end
   begin
      id 3
      name RightUpLeg_dum
      direction -1.000000 0.000000 0.000000
      length 3.697939
      axis 0.0 0.0 0.0 xyz
   end
   begin
      id 4
      name Spine
      direction 0.000000 1.000000 0.000000
      length 0.000000
      axis 0.0 0.0 0.0 xyz
      dof rx ry rz
   end
   begin
      id 5
      name Spine_dum1
      direction 0.000000 1.000000 0.000000
      length 16.447146
      axis 0.0 0.0 0.0 xyz
   end
   begin
      id 6
      name Spine_dum2
      direction 0.000000 1.000000 0.000000
      length 10.900383
      axis 0.0 0.0 0.0 xyz
   end
   begin
      id 7
      name Spine_dum3
      direction 0.000000 1.000000 0.000000
      length 10.900383
      axis 0.0 0.0 0.0 xyz
   end
   begin
      id 8
      name Head
      direction 0.000000 1.000000 0.000000
      length 4.527550
      axis 0.0 0.0 0.0 xyz
      dof rx ry rz
   end
   begin
      id 9
      name LeftShoulder
      direction 1.000000 0.000000 0.000000
      length 8.219464
      axis 0.0 0.0 -90.0 xyz
      dof rx ry rz
   end
   begin
      id 10
      name LeftArm
      direction 1.000000 0.000000 0.000000
      length 11.094937
      axis 0.0 0.0 -90.0 xyz
      dof rx ry rz
   end
   begin
      id 11
      name LeftForeArm
      direction 1.000000 0.000000 0.000000
      length 9.103875
      axis 0.0 0.0 -90.0 xyz
      dof ry rz rx
   end
   begin
      id 12
      name LeftHand
      direction 0.000000 0.000000 0.000000
      length 0.000000
      axis 0.0 0.0 -90.0 xyz
      dof rx ry rz
   end
   begin
      id 13
      name LeftHand_dum1
      direction 0.000000 0.000000 0.000000
      length 0.000000
      axis 0.0 0.0 -90.0 xyz
   end
   begin
      id 14
      name LeftHand_dum2
      direction 1.000000 0.000000 0.000000
      length 3.937000
      axis 0.0 0.0 -90.0 xyz
   end
   begin
      id 15
      name LeftHandThumb1
      direction 0.000000 0.000000 1.000000
      length 3.937000
      axis 0.0 0.0 -90.0 xyz
      dof rx rz ry
   end
   begin
      id 16
      name RightShoulder
      direction -1.000000 0.000000 0.000000
      length 8.219464
      axis 0.0 0.0 90.0 xyz
      dof rx ry rz
   end
   begin
      id 17
      name RightArm
      direction -1.000000 0.000000 0.000000
      length 11.094937
      axis 0.0 0.0 90.0 xyz
      dof rx ry rz
   end
   begin
      id 18
      name RightForeArm
      direction -1.000000 0.000000 0.000000
      length 9.103875
      axis 0.0 0.0 90.0 xyz
      dof ry rz rx
   end
   begin
      id 19
      name RightHand
      direction 0.000000 0.000000 0.000000
      length 0.000000
      axis 0.0 0.0 90.0 xyz
      dof rx ry rz
   end
   begin
      id 20
      name RightHand_dum1
      direction 0.000000 0.000000 0.000000
      length 0.000000
      axis 0.0 0.0 90.0 xyz
   end
   begin
      id 21
      name RightHand_dum2
      direction -1.000000 0.000000 0.000000
      length 3.937000
      axis 0.0 0.0 90.0 xyz
   end
   begin
      id 22
      name RightHandThumb1
      direction 0.000000 0.000000 1.000000
      length 3.937000
      axis 0.0 0.0 90.0 xyz
      dof rx rz ry
   end
   begin
      id 23
      name LeftUpLeg
      direction 0.000000 -1.000000 0.000000
      length 16.181467
      axis 0.0 0.0 0.0 xyz
      dof rx ry rz
   end
   begin
      id 24
      name LeftLeg
      direction 0.000000 -1.000000 0.000000
      length 16.501392
      axis 0.0 0.0 0.0 xyz
      dof rx ry rz
   end
   begin
      id 25
      name LeftFoot
      direction 0.000000 -0.258819 0.965926
      length 6.408245
      axis 15.0 0.0 0.0 xyz
      dof rx ry rz
   end
   begin
      id 26
      name LeftToeBase
      direction 0.000000 0.000000 1.000000
      length 2.952750
      axis 0.0 0.0 0.0 xyz
      dof rx ry rz
   end
   begin
      id 27
      name RightUpLeg
      direction 0.000000 -1.000000 0.000000
      length 16.181467
      axis 0.0 0.0 0.0 xyz
      dof rx ry rz
   end
   begin
      id 28
      name RightLeg
      direction 0.000000 -1.000000 0.000000
      length 16.501392
      axis 0.0 0.0 0.0 xyz
      dof rx ry rz
   end
   begin
      id 29
      name RightFoot
      direction 0.000000 -0.258819 0.965926
      length 6.408245
      axis 15.0 0.0 0.0 xyz
      dof rx ry rz
   end
   begin
      id 30
      name RightToeBase
      direction 0.000000 0.000000 1.000000
      length 2.952750
      axis 0.0 0.0 0.0 xyz
      dof rx ry rz
   end
:hierarchy
   begin
      root Spine_dum LeftUpLeg_dum RightUpLeg_dum
      Spine_dum Spine
      LeftUpLeg_dum LeftUpLeg
      RightUpLeg_dum RightUpLeg
      Spine Spine_dum1 Spine_dum2 Spine_dum3
      Spine_dum1 Head
      Spine_dum2 LeftShoulder
      Spine_dum3 RightShoulder
      LeftShoulder LeftArm
      LeftArm LeftForeArm
      LeftForeArm LeftHand
      LeftHand LeftHand_dum1 LeftHand_dum2
      LeftHand_dum1 LeftHandThumb1
      RightShoulder RightArm
      RightArm RightForeArm
      RightForeArm RightHand
      RightHand RightHand_dum1 RightHand_dum2
      RightHand_dum1 RightHandThumb1
      LeftUpLeg LeftLeg
      LeftLeg LeftFoot
      LeftFoot LeftToeBase
      RightUpLeg RightLeg
      RightLeg RightFoot
      RightFoot RightToeBase
   end

# File created by Blade
# Date/Time:  Wed Apr 08 17:04:22 2015
# Frame Rate: 120.000 fps
#------------------------------------------------------
:FULLY-SPECIFIED
:DEGREES
814
root 3.318678 35.938699 4.109191 -148.147623 -77.671388 175.491939
Spine -26.646235 -15.713545 -3.448692
Head 56.975670 -17.428260 -15.435481
LeftShoulder 16.784803 -3.827852 30.256734
LeftArm 105.754549 42.099069 -39.040248
LeftForeArm 0.518342 -0.000000 92.719758
LeftHand -8.899642 0.000000 -15.822569
LeftHandThumb1 -26.253704 0.000000 33.147579
RightShoulder -15.379052 -67.412941 -15.476150
RightArm 35.728378 -0.364808 56.197765
RightForeArm 23.258599 -0.000000 16.971599
RightHand 9.181310 -0.000000 -28.209919
RightHandThumb1 -24.326973 -0.000000 -32.862282
LeftUpLeg -29.587461 12.711223 -4.473548
LeftLeg 18.546673 -0.000000 -0.000000
LeftFoot -18.314900 11.442139 -15.604460
LeftToeBase 8.929199 -0.000000 -0.000000
RightUpLeg -33.102167 -3.435538 -10.542057
RightLeg 15.806908 -0.000000 -0.000000
RightFoot -10.338484 3.680842 20.009065
RightToeBase 13.058042 -0.000000 -0.000000
815
root 3.317078 35.938864 4.103376 -148.150068 -77.756565 175.481397
Spine -26.602563 -15.738594 -3.426484
Head 56.923791 -17.325919 -15.414701
LeftShoulder 16.796243 -3.770517 30.207787
LeftArm 105.817295 42.095760 -38.959551
LeftForeArm 0.449785 -0.000000 92.756813
LeftHand -8.923546 0.000000 -15.931193
LeftHandThumb1 -26.253704 0.000000 33.147579
RightShoulder -15.525375 -67.584853 -15.314961
RightArm 35.553662 -2.221943 55.097014
RightForeArm 21.045078 -0.000000 16.544341
RightHand 9.213684 -0.000000 -27.681274
RightHandThumb1 -24.326973 -0.000000 -32.862282
LeftUpLeg -29.579425 12.695346 -4.438431
LeftLeg 18.547783 -0.000000 -0.000000
LeftFoot -18.298617 11.391873 -15.589082
LeftToeBase 8.895331 -0.000000 -0.000000
RightUpLeg -33.064980 -3.463295 -10.511337
RightLeg 15.815552 -0.000000 -0.000000
RightFoot -10.361526 3.657391 20.024608
RightToeBase 13.069253 -0.000000 -0.000000
816
root 3.313043 35.939342 4.097869 -148.172499 -77.777131 175.508158
Spine -26.595058 -15.717456 -3.417514
Head 56.864718 -17.192860 -15.405042
LeftShoulder 16.793758 -3.704134 30.166015
LeftArm 105.886698 42.106711 -38.866887
LeftForeArm 0.414342 -0.000000 92.794865
LeftHand -8.918383 -0.000000 -15.997683
LeftHandThumb1 -26.253704 0.000000 33.147579
RightShoulder -15.519642 -67.706899 -15.336330
RightArm 35.334886 -4.007577 54.252295
RightForeArm 18.629090 0.000000 16.264172
RightHand 9.384130 0.000000 -26.841309
RightHandThumb1 -24.326973 -0.000000 -32.862282
LeftUpLeg -29.574703 12.750108 -4.439591
LeftLeg 18.533907 -0.000000 -0.000000
LeftFoot -18.274717 11.324428 -15.582330
LeftToeBase 8.899665 -0.000000 -0.000000
RightUpLeg -33.064952 -3.470652 -10.489644
RightLeg 15.832885 -0.000000 -0.000000
RightFoot -10.376468 3.653990 20.021929
RightToeBase 13.090672 -0.000000 -0.000000
817
root 3.313498 35.939819 4.093918 -148.139353 -77.845514 175.467839
Spine -26.557950 -15.747769 -3.398194
Head 56.813897 -17.085293 -15.403972
LeftShoulder 16.810984 -3.646014 30.133520
LeftArm 105.946035 42.107947 -38.787594
LeftForeArm 0.334880 -0.000000 92.809519
LeftHand -8.868569 -0.000000 -16.093217
LeftHandThumb1 -26.253704 0.000000 33.147579
RightShoulder -15.630329 -67.886078 -15.239007
RightArm 35.246012 -5.725135 53.414367
RightForeArm 16.027968 -0.000000 16.044453
RightHand 9.626977 -0.000000 -26.383702
RightHandThumb1 -24.326973 -0.000000 -32.862282
LeftUpLeg -29.581938 12.742793 -4.422722
LeftLeg 18.543137 -0.000000 -0.000000
LeftFoot -18.249623 11.288707 -15.549386
LeftToeBase 8.894831 -0.000000 -0.000000
RightUpLeg -33.050093 -3.512310 -10.462886
RightLeg 15.854157 -0.000000 -0.000000
RightFoot -10.394814 3.641782 20.030347
RightToeBase 13.082171 -0.000000 -0.000000
818
root 3.312811 35.940181 4.088692 -148.124379 -77.916705 175.446385
Spine -26.522589 -15.773417 -3.376570
Head 56.777293 -17.000328 -15.408559
LeftShoulder 16.818927 -3.647600 30.094636
LeftArm 106.035986 42.116476 -38.658851
LeftForeArm 0.226266 -0.000000 92.790299
LeftHand -8.802970 -0.000000 -16.126804
LeftHandThumb1 -26.253704 0.000000 33.147579
RightShoulder -15.743239 -68.033821 -15.124485
RightArm 35.188727 -7.509597 52.580614
RightForeArm 13.607222 0.000000 15.821399
RightHand 9.871870 0.000000 -26.109234
RightHandThumb1 -24.326973 -0.000000 -32.862282
LeftUpLeg -29.586419 12.733298 -4.396278
LeftLeg 18.556538 -0.000000 -0.000000
LeftFoot -18.224263 11.228339 -15.533648
LeftToeBase 8.879182 -0.000000 -0.000000
RightUpLeg -33.027515 -3.557770 -10.427588
RightLeg 15.864577 -0.000000 -0.000000
RightFoot -10.412537 3.632785 20.029550
RightToeBase 13.048962 -0.000000 -0.000000
819
root 3.311610 35.940612 4.084779 -148.099397 -77.960704 175.423745
Spine -26.502164 -15.801948 -3.360480
Head 56.737350 -16.903389 -15.409679
LeftShoulder 16.805877 -3.625013 30.076163
LeftArm 106.165690 42.117546 -38.507919
LeftForeArm 0.037012 -0.000000 92.747875
LeftHand -8.752326 -0.000000 -16.215178
LeftHandThumb1 -26.253704 0.000000 33.147579
RightShoulder -15.862020 -68.200906 -15.004448
RightArm 35.224708 -9.276839 51.734015
RightForeArm 11.426208 0.000000 15.672789
RightHand 9.825321 0.000000 -25.463235
RightHandThumb1 -24.326973 -0.000000 -32.862282
LeftUpLeg -29.592588 12.731595 -4.386216
LeftLeg 18.557335 -0.000000 -0.000000
LeftFoot -18.211264 11.192004 -15.528641
LeftToeBase 8.869084 -0.000000 -0.000000
RightUpLeg -33.022189 -3.582817 -10.408739
RightLeg 15.880813 -0.000000 -0.000000
RightFoot -10.429255 3.632846 20.019350
RightToeBase 13.065004 -0.000000 -0.000000
